<svg xmlns="http://www.w3.org/2000/svg" viewBox="0 0 1000 1000"><path d="M506.3 919.8h-12.8l-4.6-2.6C370.5 850.9 10 649.1 10 334.7 10 194.4 124.2 80.2 264.5 80.2c106.2 0 197.3 44.5 235.5 137.1 38.1-92.6 129.3-137.1 235.5-137.1C875.8 80.2 990 194.4 990 334.7c0 314.4-360.4 516.3-478.9 582.5l-4.8 2.6zM264.5 120.6c-118 0-214.1 96-214.1 214.1 0 283.6 328.2 474.2 449.5 542.4C621.1 809 949.4 618.4 949.4 334.7c0-118.1-96-214.1-214.1-214.1s-214.1 75.2-214.1 193.2h-42.8c.1-118-95.9-193.2-213.9-193.2z"/></svg>