<svg xmlns="http://www.w3.org/2000/svg" viewBox="0 0 20 25"><path fill-rule="evenodd" fill="#C5C5C5" d="M19.803 17.773c-.823-.251-1.563-.836-2.204-1.757a5.328 5.328 0 0 1-.962-3.11c0-1.06.306-2.022.906-2.887.335-.488.865-1.032 1.59-1.646-.474-.586-.962-1.06-1.45-1.394-.865-.6-1.855-.907-2.971-.907-.683 0-1.492.168-2.413.474-.92.321-1.59.474-1.994.474-.321 0-.962-.139-1.925-.418-.976-.279-1.785-.418-2.468-.418-1.604 0-2.915.669-3.961 2.008C.905 9.545.375 11.274.375 13.408c0 2.287.697 4.616 2.05 7.015 1.381 2.399 2.762 3.612 4.198 3.612.46 0 1.074-.153 1.841-.474.753-.307 1.423-.46 1.98-.46.572 0 1.284.139 2.106.446.837.293 1.479.446 1.953.446 1.185 0 2.385-.906 3.584-2.733.809-1.214 1.367-2.385 1.716-3.487zM14.559 1.414c0-.098-.014-.181-.014-.279-.014-.084-.042-.181-.07-.307-1.618.377-2.789 1.06-3.487 2.064-.697 1.005-1.06 2.204-1.087 3.585.655-.056 1.129-.14 1.45-.237.502-.168 1.004-.503 1.506-1.005a5.714 5.714 0 0 0 1.297-1.924c.265-.684.405-1.325.405-1.897z"/></svg>