<svg xmlns="http://www.w3.org/2000/svg" width="41" height="41"><path fill-rule="evenodd" fill="#FFF" d="M20.5 41.001C9.196 41.001-.001 31.804-.001 20.5-.001 9.196 9.196-.001 20.5-.001c11.304 0 20.501 9.197 20.501 20.501 0 11.304-9.197 20.501-20.501 20.501zm0-37.835c-9.558 0-17.334 7.776-17.334 17.334S10.942 37.834 20.5 37.834 37.834 30.058 37.834 20.5 30.058 3.166 20.5 3.166zm0 25.223c-4.35 0-7.889-3.539-7.889-7.889s3.539-7.889 7.889-7.889 7.889 3.539 7.889 7.889-3.539 7.889-7.889 7.889zm0-12.611a4.728 4.728 0 0 0-4.723 4.722 4.728 4.728 0 0 0 4.723 4.722 4.727 4.727 0 0 0 4.722-4.722 4.727 4.727 0 0 0-4.722-4.722z"/></svg>