<?xml version="1.0" encoding="utf-8"?>
<!-- Svg Vector Icons : http://www.onlinewebfonts.com/icon -->
<!DOCTYPE svg PUBLIC "-//W3C//DTD SVG 1.1//EN" "http://www.w3.org/Graphics/SVG/1.1/DTD/svg11.dtd">
<svg version="1.1" xmlns="http://www.w3.org/2000/svg" xmlns:xlink="http://www.w3.org/1999/xlink" x="0px" y="0px" viewBox="0 0 1000 1000" enable-background="new 0 0 1000 1000" xml:space="preserve">
<g><path d="M506.3,919.8h-12.8l-4.6-2.6C370.5,850.9,10,649.1,10,334.7C10,194.4,124.2,80.2,264.5,80.2c106.2,0,197.3,44.5,235.5,137.1c38.1-92.6,129.3-137.1,235.5-137.1C875.8,80.2,990,194.4,990,334.7c0,314.4-360.4,516.3-478.9,582.5L506.3,919.8z M264.5,120.6c-118,0-214.1,96-214.1,214.1c0,283.6,328.2,474.2,449.5,542.4c121.2-68.1,449.5-258.7,449.5-542.4c0-118.1-96-214.1-214.1-214.1c-118.1,0-214.1,75.2-214.1,193.2l0,0h-42.8l0,0C478.5,195.8,382.5,120.6,264.5,120.6z"/></g>
</svg>