<?xml version="1.0" encoding="utf-8"?>
    <!DOCTYPE svg PUBLIC "-//W3C//DTD SVG 1.1//EN" "http://www.w3.org/Graphics/SVG/1.1/DTD/svg11.dtd">
<svg version="1.1" xmlns="http://www.w3.org/2000/svg" xmlns:xlink="http://www.w3.org/1999/xlink" x="0px" y="0px" viewBox="0 0 20 25" enable-background="new 0 0 20 25" xml:space="preserve">
<g>    <path fill-rule="evenodd"  fill="rgb(197, 197, 197)"
          d="M19.803,17.773 C18.980,17.522 18.240,16.937 17.599,16.016 C16.957,15.096 16.637,14.049 16.637,12.906 C16.637,11.846 16.943,10.884 17.543,10.019 C17.878,9.531 18.408,8.987 19.133,8.373 C18.659,7.787 18.171,7.313 17.683,6.979 C16.818,6.379 15.828,6.072 14.712,6.072 C14.029,6.072 13.220,6.240 12.299,6.546 C11.379,6.867 10.709,7.020 10.305,7.020 C9.984,7.020 9.343,6.881 8.380,6.602 C7.404,6.323 6.595,6.184 5.912,6.184 C4.308,6.184 2.997,6.853 1.951,8.192 C0.905,9.545 0.375,11.274 0.375,13.408 C0.375,15.695 1.072,18.024 2.425,20.423 C3.806,22.822 5.187,24.035 6.623,24.035 C7.083,24.035 7.697,23.882 8.464,23.561 C9.217,23.254 9.887,23.101 10.444,23.101 C11.016,23.101 11.728,23.240 12.550,23.547 C13.387,23.840 14.029,23.993 14.503,23.993 C15.688,23.993 16.888,23.087 18.087,21.260 C18.896,20.046 19.454,18.875 19.803,17.773 ZM14.559,1.414 C14.559,1.316 14.545,1.233 14.545,1.135 C14.531,1.051 14.503,0.954 14.475,0.828 C12.857,1.205 11.686,1.888 10.988,2.892 C10.291,3.897 9.928,5.096 9.901,6.477 C10.556,6.421 11.030,6.337 11.351,6.240 C11.853,6.072 12.355,5.737 12.857,5.235 C13.443,4.650 13.875,4.008 14.154,3.311 C14.419,2.627 14.559,1.986 14.559,1.414 Z"/></g>
</svg>
