<svg
    xmlns="http://www.w3.org/2000/svg"
    xmlns:xlink="http://www.w3.org/1999/xlink"
    width="41px" height="41px">
    <path fill-rule="evenodd"  fill="rgb(255, 255, 255)"
          d="M20.500,41.001 C9.196,41.001 -0.001,31.804 -0.001,20.500 C-0.001,9.196 9.196,-0.001 20.500,-0.001 C31.804,-0.001 41.001,9.196 41.001,20.500 C41.001,31.804 31.804,41.001 20.500,41.001 ZM20.500,3.166 C10.942,3.166 3.166,10.942 3.166,20.500 C3.166,30.058 10.942,37.834 20.500,37.834 C30.058,37.834 37.834,30.058 37.834,20.500 C37.834,10.942 30.058,3.166 20.500,3.166 ZM20.500,28.389 C16.150,28.389 12.611,24.850 12.611,20.500 C12.611,16.150 16.150,12.611 20.500,12.611 C24.850,12.611 28.389,16.150 28.389,20.500 C28.389,24.850 24.850,28.389 20.500,28.389 ZM20.500,15.778 C17.896,15.778 15.777,17.896 15.777,20.500 C15.777,23.104 17.896,25.222 20.500,25.222 C23.104,25.222 25.222,23.104 25.222,20.500 C25.222,17.896 23.104,15.778 20.500,15.778 Z"/>
</svg>
